<svg width="40" height="40" viewBox="0 0 40 40" fill="none" xmlns="http://www.w3.org/2000/svg">
<path d="M23.7386 9.42729L24.1294 9.4891L24.2794 9.12295C24.4835 8.62448 24.7121 8.13645 24.9642 7.66061C27.1147 8.09284 29.2031 8.79231 31.1806 9.74294C34.9424 15.1981 36.6624 21.8033 36.0406 28.3986C33.6882 30.1455 31.0664 31.4961 28.279 32.3973C27.8022 31.7174 27.3678 31.0087 26.9784 30.2754C27.8117 29.9245 28.6186 29.5131 29.3924 29.0444L30.0417 28.6511L29.4239 28.2099C29.2034 28.0524 28.9817 27.8782 28.7587 27.6871L28.5107 27.4745L28.2163 27.6163C25.6533 28.8509 22.8449 29.492 20 29.492C17.1551 29.492 14.3467 28.8509 11.7836 27.6163L11.4775 27.4688L11.2277 27.6992C11.0286 27.8828 10.8152 28.0504 10.5897 28.2005L9.93855 28.6337L10.6051 29.0429C11.3709 29.5129 12.1733 29.9198 13.0044 30.2596C12.6027 30.9703 12.1598 31.6569 11.678 32.316C8.88419 31.412 6.25509 30.0609 3.89324 28.3151C3.28725 21.722 5.00528 15.1233 8.75143 9.66208C10.7526 8.73085 12.8632 8.05669 15.033 7.65543C15.2862 8.13291 15.5157 8.62267 15.7206 9.12295L15.8706 9.4891L16.2614 9.42729C18.7384 9.03556 21.2616 9.03556 23.7386 9.42729ZM14.4309 25.1821L14.4667 24.6834L14.5 25.1823C15.4654 25.1179 16.3677 24.6794 17.015 23.9602C17.658 23.2458 17.999 22.3102 17.967 21.3501C17.999 20.39 17.658 19.4544 17.015 18.74C16.3677 18.0208 15.4654 17.5823 14.5 17.5179L14.4667 17.5156L14.4334 17.5179C13.4679 17.5823 12.5657 18.0208 11.9184 18.74C11.2751 19.4547 10.934 20.3908 10.9664 21.3513C10.9389 22.31 11.2814 23.2427 11.9232 23.9559C12.5691 24.6735 13.4679 25.113 14.4309 25.1821ZM25.4975 25.1821L25.5333 24.6834L25.5641 25.1825C26.532 25.1228 27.4378 24.6855 28.0866 23.9647C28.7304 23.2493 29.07 22.3113 29.0337 21.3501C29.07 20.3889 28.7304 19.4509 28.0866 18.7355C27.4378 18.0147 26.532 17.5774 25.5641 17.5177L25.5321 17.5157L25.5 17.5179C24.5346 17.5823 23.6323 18.0208 22.985 18.74C22.3418 19.4547 22.0007 20.3908 22.0331 21.3513C22.0055 22.31 22.348 23.2427 22.9899 23.9559C23.6358 24.6735 24.5345 25.113 25.4975 25.1821Z" stroke="#1DC7A8"/>
</svg>
