<svg width="40" height="40" viewBox="0 0 40 40" fill="none" xmlns="http://www.w3.org/2000/svg">
<path d="M31 8.5H31.0001C32.1073 8.49983 33.1758 8.90789 34.001 9.64613C34.7467 10.3132 35.2465 11.2075 35.4265 12.1856L20 21.2599L4.57351 12.1856C4.75347 11.2075 5.25327 10.3132 5.99895 9.64613C6.8242 8.90789 7.89266 8.49983 8.99992 8.5H9H31ZM20.762 24.2927L35.5 15.6204V29C35.5 30.1935 35.0259 31.3381 34.182 32.182C33.3381 33.0259 32.1935 33.5 31 33.5H9C7.80653 33.5 6.66193 33.0259 5.81802 32.182C4.97411 31.3381 4.5 30.1935 4.5 29V15.6204L19.238 24.2927C19.4689 24.4288 19.732 24.5006 20 24.5006C20.268 24.5006 20.5311 24.4288 20.762 24.2927Z" stroke="#1DC7A8"/>
</svg>
