<svg width="40" height="40" viewBox="0 0 40 40" fill="none" xmlns="http://www.w3.org/2000/svg">
<path d="M34.6899 9.02091L35.0062 9.94641C36.0278 9.824 37.0184 9.60799 37.9709 9.30564C37.1681 10.2589 36.2503 11.112 35.237 11.8448L35.0184 12.0029L35.0305 12.2724C35.0452 12.5991 35.0533 12.9282 35.0533 13.2533C35.0533 23.2983 27.4115 34.8433 13.4617 34.8433H13.4611C10.0256 34.8471 6.64978 34.0262 3.61304 32.4624C7.15153 32.4239 10.5807 31.219 13.3671 29.0316L14.4721 28.1641L13.0675 28.1384C11.5516 28.1106 10.0824 27.6095 8.86551 26.7052C7.86806 25.964 7.08106 24.9823 6.57417 23.8575C7.53584 23.938 8.50649 23.8509 9.4423 23.5976L9.41071 22.6249C7.76647 22.2926 6.28781 21.4017 5.22565 20.1034C4.31578 18.9912 3.75954 17.6387 3.6188 16.2193C4.55593 16.6179 5.56123 16.8405 6.58411 16.873L8.33192 16.9287L6.87769 15.9575C5.88306 15.2933 5.06777 14.3938 4.50414 13.3389C3.94051 12.284 3.64598 11.1063 3.64668 9.91026V9.90997C3.64668 8.83881 3.87962 7.82071 4.29681 6.9023C6.20291 9.09245 8.51574 10.8957 11.1096 12.2108C13.9292 13.6402 17.0177 14.4608 20.1749 14.6193L20.8386 14.6527L20.6868 14.0057C20.3212 12.4475 20.4802 10.8122 21.1392 9.35368C21.7983 7.89514 22.9204 6.69497 24.3314 5.93952C25.7424 5.18406 27.3634 4.91559 28.9426 5.17577C30.5218 5.43596 31.971 6.21024 33.0651 7.37842L33.2545 7.58063L33.5263 7.52727C34.8479 7.26785 36.1295 6.843 37.3413 6.26411C36.7228 7.39563 35.8106 8.35036 34.6899 9.02091Z" stroke="#1DC7A8"/>
</svg>
