<svg width="577" height="568" viewBox="0 0 577 568" fill="none" xmlns="http://www.w3.org/2000/svg">
<path d="M23.5407 260.397L5.51038 191.008V271.325L23.5407 260.397Z" fill="#B9FD02"/>
<path d="M190.185 19.9929L171.608 0.869873L251.925 6.33361H198.38L190.185 19.9929Z" fill="#B9FD02"/>
<path d="M226.245 551.614L217.503 558.171H339.345L336.066 551.614H226.245Z" fill="#B9FD02"/>
<path d="M556.801 342.353L562.811 334.158V398.083L556.801 392.073V342.353Z" fill="#B9FD02"/>
<path d="M434.413 26.003L413.105 13.4365H445.887L434.413 26.003Z" fill="#B9FD02"/>
<path d="M5.46399 478.721V96.1667L101.313 12.8438H469.208L550.837 77.0586V485.279L469.191 558.217H95.305L5.46399 478.721Z" stroke="#B9FD02"/>
<path d="M88.0128 5.78735L1.1394 77.3623V5.78735H88.0128Z" fill="#B9FD02" fill-opacity="0.2" stroke="#B9FD02"/>
<path d="M498.885 558.171L558.986 500.801L575.924 558.171H498.885Z" fill="#B9FD02" fill-opacity="0.2" stroke="#B9FD02"/>
<path d="M557.347 56.6L490.69 3.60181H557.347V56.6Z" fill="#B9FD02" fill-opacity="0.2" stroke="#B9FD02"/>
<path d="M69.9825 566.913L1.68579 502.987V566.913H69.9825Z" fill="#B9FD02" fill-opacity="0.2" stroke="#B9FD02"/>
</svg>
