<svg width="1012" height="1012" viewBox="0 0 1012 1012" fill="none" xmlns="http://www.w3.org/2000/svg">
<g opacity="0.5">
<path opacity="0.0344828" d="M183.529 448.977L355.457 418.884C369.225 416.474 378.597 403.575 376.634 389.737L352.125 216.923C348.749 193.119 378.682 179.792 394.113 198.229L506.139 332.077C515.11 342.795 530.966 344.462 541.969 335.843L679.376 228.212C698.303 213.385 724.811 232.644 716.559 255.227L656.656 419.168C651.859 432.296 658.344 446.862 671.31 452.081L833.225 517.263C855.528 526.241 852.103 558.827 828.421 562.972L656.492 593.065C642.724 595.475 633.353 608.374 635.315 622.212L659.824 795.025C663.2 818.83 633.267 832.157 617.836 813.72L505.81 679.872C496.84 669.154 480.983 667.487 469.98 676.106L332.574 783.737C313.646 798.563 287.139 779.305 295.39 756.722L355.293 592.781C360.09 579.653 353.605 565.087 340.639 559.868L178.724 494.686C156.421 485.708 159.846 453.122 183.529 448.977Z" stroke="white" stroke-width="2"/>
<path opacity="0.0689655" d="M191.942 432.969L361.721 412.34C375.596 410.654 385.63 398.263 384.394 384.341L369.274 213.983C367.148 190.034 397.737 178.292 412.183 197.512L514.938 334.23C523.335 345.403 539.083 347.897 550.522 339.866L690.496 241.592C710.174 227.777 735.637 248.397 726.215 270.517L659.191 427.865C653.714 440.723 659.428 455.608 672.103 461.499L827.197 533.584C849 543.717 843.874 576.079 820.007 578.979L650.228 599.609C636.353 601.295 626.32 613.686 627.555 627.608L642.675 797.966C644.801 821.915 614.212 833.656 599.766 814.437L497.011 677.719C488.614 666.546 472.866 664.052 461.427 672.083L321.453 770.356C301.775 784.171 276.312 763.552 285.734 741.432L352.758 584.084C358.235 571.226 352.521 556.34 339.847 550.45L184.752 478.365C162.949 468.231 168.075 435.87 191.942 432.969Z" stroke="white" stroke-width="2"/>
<path opacity="0.103448" d="M201.134 417.684L368.253 406.209C382.197 405.252 392.865 393.403 392.36 379.436L386.304 212.033C385.434 188.005 416.596 177.88 430.015 197.83L523.513 336.821C531.314 348.418 546.91 351.733 558.753 344.312L700.7 255.366C721.074 242.599 745.423 264.523 734.856 286.12L661.234 436.587C655.092 449.141 660.019 464.305 672.368 470.851L820.371 549.307C841.614 560.568 834.801 592.617 810.815 594.264L643.696 605.74C629.752 606.697 619.084 618.546 619.589 632.513L625.645 799.916C626.515 823.943 595.353 834.068 581.933 814.119L488.436 675.128C480.635 663.531 465.039 660.216 453.196 667.637L311.249 756.583C290.875 769.35 266.526 747.426 277.093 725.829L350.714 575.362C356.857 562.808 351.93 547.644 339.581 541.098L191.578 462.642C170.335 451.381 177.147 419.332 201.134 417.684Z" stroke="white" stroke-width="2"/>
<path opacity="0.137931" d="M211.051 403.159L375.027 400.502C389.002 400.276 400.276 389.002 400.502 375.027L403.159 211.051C403.548 187.011 435.197 178.531 447.554 199.155L531.842 339.835C539.026 351.824 554.426 355.951 566.642 349.159L709.978 269.472C730.991 257.789 754.16 280.958 742.477 301.971L662.79 445.307C655.998 457.522 660.125 472.923 672.114 480.107L812.793 564.395C833.418 576.752 824.937 608.401 800.898 608.79L636.922 611.446C622.947 611.673 611.673 622.947 611.446 636.922L608.79 800.898C608.401 824.937 576.752 833.418 564.395 812.793L480.107 672.114C472.923 660.125 457.522 655.998 445.307 662.79L301.971 742.477C280.958 754.16 257.789 730.991 269.472 709.978L349.159 566.642C355.951 554.426 351.824 539.026 339.835 531.842L199.155 447.554C178.531 435.197 187.011 403.548 211.051 403.159Z" stroke="white" stroke-width="2"/>
<path opacity="0.172414" d="M221.64 389.426L382.017 395.228C395.985 395.733 407.834 385.064 408.791 371.12L419.785 211.015C421.432 187.029 453.481 180.216 464.742 201.459L539.906 343.251C546.452 355.6 561.616 360.527 574.17 354.384L718.322 283.852C739.918 273.286 761.843 297.635 749.076 318.008L663.863 453.998C656.441 465.842 659.756 481.437 671.353 489.239L804.512 578.812C824.461 592.232 814.336 623.393 790.309 622.524L629.932 616.722C615.964 616.216 604.115 626.885 603.158 640.829L592.164 800.934C590.517 824.921 558.468 831.733 547.207 810.49L472.043 668.698C465.497 656.349 450.333 651.422 437.779 657.565L293.627 728.097C272.031 738.664 250.106 714.314 262.873 693.941L348.086 557.951C355.508 546.108 352.193 530.512 340.596 522.711L207.437 433.137C187.488 419.718 197.613 388.556 221.64 389.426Z" stroke="white" stroke-width="2"/>
<path opacity="0.206897" d="M232.844 376.514L389.197 390.391C403.119 391.627 415.51 381.593 417.196 367.718L436.13 211.897C439.03 188.03 471.392 182.904 481.525 204.707L547.684 347.051C553.575 359.726 568.46 365.44 581.318 359.962L725.73 298.449C747.85 289.027 768.47 314.49 754.655 334.168L664.461 462.634C656.43 474.073 658.924 489.821 670.097 498.219L795.575 592.526C814.795 606.972 803.053 637.561 779.104 635.435L622.751 621.558C608.829 620.322 596.438 630.356 594.752 644.231L575.819 800.052C572.918 823.919 540.557 829.045 530.423 807.242L464.265 664.898C458.374 652.224 443.489 646.51 430.63 651.987L286.218 713.5C264.098 722.923 243.478 697.459 257.293 677.782L347.488 549.315C355.519 537.876 353.024 522.128 341.852 513.731L216.373 419.423C197.154 404.978 208.896 374.389 232.844 376.514Z" stroke="white" stroke-width="2"/>
<path opacity="0.241379" d="M244.609 364.452L396.54 385.999C410.379 387.961 423.278 378.59 425.687 364.822L452.144 213.668C456.29 189.985 488.875 186.56 497.854 208.864L555.159 351.214C560.379 364.18 574.945 370.665 588.072 365.868L732.204 313.203C754.787 304.952 774.046 331.459 759.22 350.387L664.593 471.19C655.974 482.193 657.641 498.05 668.359 507.02L786.034 605.51C804.471 620.941 791.145 650.874 767.34 647.498L615.408 625.95C601.57 623.988 588.671 633.359 586.261 647.127L559.804 798.281C555.659 821.964 523.073 825.389 514.095 803.085L456.789 660.735C451.57 647.769 437.004 641.284 423.876 646.081L279.744 698.746C257.162 706.997 237.903 680.49 252.729 661.562L347.355 540.759C355.974 529.756 354.307 513.899 343.589 504.929L225.914 406.439C207.477 391.008 220.804 361.076 244.609 364.452Z" stroke="white" stroke-width="2"/>
<path opacity="0.275862" d="M256.874 353.261L404.021 382.055C417.737 384.739 431.109 376.055 434.236 362.433L467.781 216.296C473.16 192.863 505.88 191.148 513.679 213.891L562.316 355.721C566.85 368.941 581.056 376.18 594.417 372.077L737.747 328.059C760.731 321.001 778.576 348.48 762.78 366.606L664.27 479.641C655.087 490.178 655.922 506.1 666.156 515.619L775.941 617.739C793.545 634.114 778.67 663.308 755.075 658.69L607.929 629.896C594.212 627.212 580.84 635.896 577.713 649.518L544.168 795.655C538.789 819.088 506.069 820.803 498.27 798.06L449.633 656.231C445.099 643.01 430.893 635.771 417.532 639.875L274.202 683.892C251.218 690.95 233.373 663.471 249.169 645.345L347.679 532.31C356.862 521.773 356.027 505.851 345.794 496.332L236.008 394.213C218.404 377.838 233.279 348.644 256.874 353.261Z" stroke="white" stroke-width="2"/>
<path opacity="0.310345" d="M269.582 342.957L411.61 378.558C425.167 381.957 438.975 373.985 442.811 360.545L482.994 219.744C489.592 196.624 522.357 196.624 528.955 219.744L569.138 360.545C572.973 373.985 586.781 381.957 600.338 378.559L742.367 342.957C765.688 337.112 782.071 365.487 765.347 382.761L663.502 487.961C653.78 498.002 653.78 513.946 663.502 523.988L765.347 629.188C782.071 646.462 765.688 674.837 742.367 668.991L600.338 633.39C586.781 629.992 572.973 637.964 569.138 651.404L528.955 792.205C522.357 815.324 489.592 815.324 482.994 792.205L442.811 651.404C438.975 637.964 425.167 629.992 411.61 633.39L269.582 668.991C246.261 674.837 229.878 646.462 246.601 629.188L348.447 523.988C358.169 513.946 358.169 498.002 348.447 487.961L246.601 382.761C229.878 365.487 246.261 337.112 269.582 342.957Z" stroke="white" stroke-width="2"/>
<path opacity="0.344828" d="M282.674 333.56L419.284 375.514C432.645 379.617 446.851 372.378 451.385 359.157L497.741 223.978C505.54 201.235 538.26 202.95 543.639 226.383L575.612 365.668C578.739 379.29 592.11 387.974 605.827 385.29L746.074 357.846C769.669 353.229 784.545 382.423 766.94 398.798L662.302 496.129C652.068 505.648 651.234 521.57 660.417 532.107L754.307 639.843C770.104 657.968 752.259 685.447 729.275 678.389L592.665 636.435C579.304 632.332 565.098 639.571 560.564 652.792L514.208 787.971C506.409 810.714 473.688 808.999 468.309 785.566L436.337 646.281C433.21 632.659 419.838 623.975 406.122 626.659L265.875 654.103C242.279 658.72 227.404 629.526 245.009 613.151L349.647 515.82C359.881 506.301 360.715 490.379 351.532 479.842L257.641 372.106C241.845 353.981 259.69 326.502 282.674 333.56Z" stroke="white" stroke-width="2"/>
<path opacity="0.37931" d="M296.089 325.079L427.015 372.918C440.143 377.715 454.709 371.23 459.928 358.265L511.983 228.957C520.961 206.654 553.547 210.079 557.692 233.761L581.725 371.066C584.135 384.833 597.034 394.205 610.872 392.243L748.883 372.67C772.688 369.294 786.015 399.226 767.577 414.657L660.684 504.123C649.966 513.093 648.3 528.95 656.918 539.953L742.875 649.687C757.701 668.615 738.442 695.123 715.859 686.871L584.934 639.032C571.806 634.235 557.24 640.72 552.021 653.685L499.966 782.993C490.987 805.296 458.401 801.872 454.256 778.189L430.223 640.884C427.814 627.117 414.915 617.745 401.077 619.708L263.065 639.281C239.261 642.657 225.934 612.724 244.371 597.293L351.264 507.827C361.982 498.857 363.649 483 355.03 471.997L269.074 362.263C254.248 343.335 273.507 316.827 296.089 325.079Z" stroke="white" stroke-width="2"/>
<path opacity="0.413793" d="M309.77 317.521L434.778 370.77C447.637 376.247 462.522 370.533 468.413 357.859L525.683 234.64C535.816 212.837 568.178 217.963 571.078 241.83L587.468 376.715C589.154 390.59 601.545 400.624 615.467 399.388L750.812 387.375C774.76 385.25 786.502 415.839 767.283 430.284L658.664 511.921C647.491 520.318 644.997 536.066 653.028 547.505L731.103 658.711C744.919 678.388 724.299 703.851 702.179 694.429L577.17 641.181C564.312 635.704 549.427 641.417 543.536 654.092L486.266 777.31C476.133 799.113 443.771 793.988 440.871 770.12L424.481 635.236C422.795 621.361 410.404 611.327 396.482 612.563L261.137 624.575C237.189 626.701 225.447 596.112 244.666 581.666L353.285 500.03C364.458 491.633 366.952 475.885 358.921 464.446L280.845 353.24C267.03 333.563 287.65 308.099 309.77 317.521Z" stroke="white" stroke-width="2"/>
<path opacity="0.448276" d="M323.655 310.89L442.549 369.063C455.103 375.206 470.267 370.279 476.813 357.93L538.806 240.984C550.067 219.741 582.116 226.553 583.763 250.539L592.831 382.59C593.788 396.534 605.637 407.203 619.604 406.698L751.88 401.912C775.907 401.043 786.032 432.205 766.083 445.624L656.257 519.502C644.66 527.303 641.345 542.899 648.766 554.742L719.048 666.903C731.814 687.277 709.89 711.626 688.294 701.059L569.401 642.886C556.846 636.744 541.683 641.671 535.136 654.02L473.143 770.966C461.882 792.209 429.833 785.397 428.186 761.41L419.119 629.359C418.161 615.415 406.313 604.747 392.345 605.252L260.07 610.038C236.043 610.907 225.918 579.745 245.867 566.326L355.693 492.448C367.29 484.647 370.605 469.051 363.183 457.207L292.901 345.046C280.135 324.673 302.059 300.323 323.655 310.89Z" stroke="white" stroke-width="2"/>
<path opacity="0.482759" d="M337.686 305.187L450.3 367.795C462.516 374.586 477.916 370.459 485.1 358.47L551.322 247.943C563.679 227.319 595.328 235.799 595.717 259.839L597.804 388.669C598.031 402.644 609.305 413.918 623.28 414.145L752.11 416.231C776.15 416.621 784.63 448.27 764.005 460.627L653.479 526.849C641.489 534.033 637.363 549.433 644.154 561.649L706.762 674.263C718.445 695.276 695.276 718.445 674.262 706.762L561.649 644.154C549.433 637.363 534.032 641.49 526.849 653.479L460.626 764.006C448.269 784.63 416.621 776.15 416.231 752.11L414.144 623.28C413.918 609.305 402.644 598.031 388.669 597.805L259.839 595.718C235.799 595.328 227.319 563.68 247.943 551.322L358.47 485.1C370.459 477.917 374.586 462.516 367.794 450.3L305.187 337.687C293.504 316.673 316.673 293.504 337.686 305.187Z" stroke="white" stroke-width="2"/>
<path opacity="0.517241" d="M351.806 300.409L458.01 366.958C469.853 374.379 485.449 371.064 493.25 359.467L563.204 255.475C576.624 235.525 607.785 245.65 606.916 269.678L602.385 394.928C601.879 408.895 612.548 420.744 626.492 421.701L751.529 430.287C775.516 431.934 782.328 463.983 761.085 475.244L650.35 533.945C638.001 540.491 633.074 555.655 639.217 568.209L694.3 680.787C704.867 702.384 680.518 724.308 660.144 711.542L553.94 644.992C542.096 637.571 526.501 640.886 518.7 652.483L448.746 756.476C435.326 776.425 404.164 766.3 405.034 742.273L409.565 617.023C410.07 603.055 399.402 591.207 385.458 590.249L260.42 581.664C236.434 580.016 229.622 547.967 250.864 536.706L361.6 478.006C373.949 471.46 378.876 456.296 372.733 443.741L317.65 331.163C307.083 309.567 331.432 287.642 351.806 300.409Z" stroke="white" stroke-width="2"/>
<path opacity="0.551724" d="M365.954 296.546L465.653 366.543C477.092 374.574 492.839 372.08 501.237 360.907L574.426 263.528C588.871 244.308 619.46 256.05 617.334 279.999L606.565 401.339C605.329 415.261 615.363 427.652 629.238 429.337L750.165 444.031C774.032 446.931 779.158 479.293 757.355 489.427L646.887 540.77C634.212 546.661 628.499 561.546 633.976 574.405L681.714 686.478C691.136 708.598 665.673 729.218 645.996 715.402L546.297 645.406C534.858 637.375 519.11 639.869 510.713 651.042L437.524 748.421C423.079 767.641 392.49 755.899 394.615 731.95L405.385 610.61C406.62 596.688 396.586 584.297 382.712 582.611L261.784 567.918C237.917 565.017 232.792 532.656 254.594 522.522L365.063 471.179C377.737 465.288 383.451 450.403 377.974 437.544L330.235 325.471C320.813 303.351 346.277 282.731 365.954 296.546Z" stroke="white" stroke-width="2"/>
<path opacity="0.586207" d="M380.075 293.592L473.207 366.543C484.21 375.162 500.067 373.495 509.037 362.777L584.966 272.057C600.397 253.62 630.33 266.947 626.954 290.751L610.342 407.881C608.38 421.719 617.752 434.618 631.519 437.028L748.049 457.425C771.732 461.57 775.157 494.156 752.853 503.134L643.11 547.313C630.145 552.532 623.66 567.098 628.457 580.226L669.058 691.342C677.309 713.925 650.802 733.184 631.874 718.358L538.743 645.407C527.74 636.788 511.883 638.455 502.912 649.173L426.983 739.893C411.552 758.33 381.62 745.003 384.996 721.198L401.607 604.069C403.57 590.231 394.198 577.331 380.431 574.922L263.9 554.525C240.218 550.38 236.793 517.794 259.096 508.816L368.839 464.637C381.805 459.417 388.29 444.852 383.493 431.724L342.892 320.608C334.64 298.025 361.148 278.766 380.075 293.592Z" stroke="white" stroke-width="2"/>
<path opacity="0.62069" d="M394.114 291.53L480.65 366.946C491.186 376.128 507.109 375.294 516.628 365.06L594.807 281.012C611.182 263.408 640.376 278.283 635.759 301.878L613.715 414.528C611.031 428.245 619.714 441.617 633.337 444.744L745.214 470.424C768.647 475.804 770.362 508.524 747.619 516.323L639.039 553.557C625.819 558.091 618.58 572.297 622.683 585.658L656.382 695.387C663.44 718.371 635.961 736.216 617.835 720.42L531.299 645.004C520.762 635.821 504.84 636.656 495.321 646.889L417.142 730.937C400.767 748.542 371.573 733.667 376.19 710.071L398.234 597.421C400.918 583.705 392.234 570.333 378.612 567.206L266.735 541.525C243.301 536.146 241.587 503.426 264.329 495.627L372.909 458.392C386.13 453.858 393.368 439.652 389.265 426.291L355.567 316.562C348.509 293.579 375.988 275.734 394.114 291.53Z" stroke="white" stroke-width="2"/>
<path opacity="0.655172" d="M408.015 290.344L487.96 367.74C498.002 377.461 513.946 377.461 523.988 367.74L603.933 290.344C621.207 273.62 649.582 290.003 643.736 313.324L616.682 421.257C613.284 434.814 621.256 448.622 634.696 452.458L741.695 482.994C764.815 489.592 764.815 522.357 741.695 528.955L634.696 559.492C621.256 563.327 613.284 577.135 616.682 590.692L643.737 698.625C649.582 721.946 621.207 738.329 603.933 721.606L523.988 644.209C513.946 634.488 498.002 634.488 487.96 644.209L408.015 721.606C390.741 738.329 362.366 721.946 368.211 698.625L395.266 590.692C398.664 577.135 390.692 563.327 377.252 559.492L270.253 528.955C247.133 522.357 247.133 489.592 270.253 482.994L377.252 452.458C390.692 448.622 398.664 434.814 395.266 421.257L368.211 313.324C362.366 290.003 390.741 273.62 408.015 290.344Z" stroke="white" stroke-width="2"/>
<path opacity="0.689655" d="M421.729 289.992L495.119 368.893C504.639 379.127 520.561 379.961 531.098 370.778L612.334 299.982C630.459 284.185 657.938 302.03 650.88 325.014L619.246 428.022C615.143 441.383 622.381 455.59 635.602 460.123L737.532 495.077C760.275 502.876 758.56 535.597 735.126 540.976L630.101 565.084C616.479 568.211 607.795 581.583 610.479 595.299L631.173 701.05C635.79 724.645 606.596 739.521 590.221 721.916L516.83 643.016C507.311 632.782 491.389 631.947 480.852 641.13L399.616 711.927C381.49 727.723 354.011 709.878 361.069 686.895L392.704 583.886C396.807 570.525 389.568 556.319 376.348 551.785L274.418 516.831C251.675 509.032 253.39 476.312 276.823 470.933L381.848 446.825C395.471 443.698 404.154 430.326 401.47 416.609L380.777 310.858C376.159 287.263 405.353 272.388 421.729 289.992Z" stroke="white" stroke-width="2"/>
<path opacity="0.724138" d="M435.2 290.494L502.105 370.431C511.076 381.149 526.932 382.816 537.935 374.197L619.998 309.917C638.926 295.091 665.433 314.349 657.182 336.932L621.406 434.842C616.609 447.97 623.094 462.536 636.06 467.755L732.76 506.683C755.063 515.662 751.638 548.248 727.956 552.393L625.275 570.365C611.508 572.775 602.136 585.674 604.099 599.512L618.736 702.721C622.112 726.526 592.179 739.852 576.748 721.415L509.843 641.477C500.873 630.759 485.016 629.093 474.013 637.711L391.95 701.992C373.023 716.818 346.515 697.559 354.767 674.977L390.542 577.066C395.339 563.939 388.854 549.373 375.888 544.154L279.188 505.225C256.885 496.247 260.31 463.661 283.993 459.516L386.673 441.543C400.441 439.134 409.812 426.235 407.85 412.396L393.212 309.188C389.836 285.383 419.769 272.056 435.2 290.494Z" stroke="white" stroke-width="2"/>
<path opacity="0.758621" d="M448.384 291.801L508.901 372.321C517.299 383.493 533.046 385.988 544.485 377.957L626.923 320.079C646.6 306.263 672.064 326.883 662.642 349.003L623.168 441.673C617.691 454.531 623.405 469.417 636.079 475.307L727.422 517.762C749.225 527.895 744.099 560.257 720.232 563.157L620.241 575.307C606.366 576.993 596.333 589.384 597.568 603.306L606.473 703.638C608.599 727.587 578.01 739.329 563.564 720.109L503.047 639.589C494.649 628.416 478.902 625.922 467.463 633.953L385.025 691.831C365.348 705.646 339.884 685.026 349.306 662.907L388.78 570.237C394.257 557.378 388.543 542.493 375.869 536.602L284.526 494.148C262.723 484.015 267.849 451.653 291.716 448.753L391.707 436.603C405.581 434.917 415.615 422.526 414.38 408.604L405.475 308.272C403.349 284.323 433.938 272.581 448.384 291.801Z" stroke="white" stroke-width="2"/>
<path opacity="0.793103" d="M461.232 293.883L515.491 374.543C523.292 386.14 538.887 389.455 550.731 382.034L633.106 330.416C653.48 317.65 677.829 339.574 667.262 361.17L624.538 448.49C618.395 461.044 623.322 476.208 635.671 482.754L721.561 528.284C742.803 539.545 735.991 571.594 712.005 573.241L615.022 579.901C601.078 580.858 590.409 592.707 590.915 606.674L594.429 703.822C595.298 727.849 564.137 737.975 550.717 718.025L496.459 637.365C488.658 625.768 473.062 622.453 461.218 629.875L378.843 681.492C358.47 694.259 334.12 672.334 344.687 650.738L387.411 563.419C393.554 550.864 388.627 535.7 376.278 529.154L290.388 483.624C269.146 472.363 275.958 440.314 299.944 438.667L396.927 432.008C410.871 431.05 421.54 419.202 421.035 405.234L417.52 308.086C416.651 284.059 447.812 273.934 461.232 293.883Z" stroke="white" stroke-width="2"/>
<path opacity="0.827586" d="M473.699 296.711L521.856 377.085C529.039 389.075 544.44 393.201 556.656 386.41L638.547 340.882C659.561 329.2 682.729 352.368 671.047 373.382L625.519 455.273C618.728 467.489 622.854 482.89 634.844 490.073L715.218 538.23C735.842 550.587 727.362 582.236 703.322 582.625L609.638 584.143C595.663 584.369 584.389 595.643 584.163 609.618L582.645 703.302C582.256 727.342 550.607 735.822 538.25 715.198L490.093 634.824C482.91 622.834 467.509 618.708 455.293 625.499L373.402 671.027C352.388 682.709 329.22 659.541 340.902 638.527L386.43 556.636C393.221 544.42 389.095 529.019 377.105 521.836L296.731 473.679C276.107 461.322 284.587 429.673 308.627 429.284L402.311 427.766C416.286 427.54 427.56 416.266 427.786 402.291L429.304 308.607C429.693 284.567 461.342 276.087 473.699 296.711Z" stroke="white" stroke-width="2"/>
<path opacity="0.862069" d="M485.744 300.25L527.982 379.928C534.528 392.277 549.692 397.204 562.246 391.061L643.251 351.426C664.847 340.86 686.772 365.209 674.005 385.583L626.12 462.001C618.699 473.844 622.014 489.44 633.611 497.241L708.438 547.576C728.387 560.995 718.262 592.157 694.235 591.288L604.113 588.027C590.145 587.522 578.296 598.19 577.339 612.134L571.161 702.104C569.514 726.09 537.465 732.902 526.204 711.66L483.967 631.981C477.42 619.632 462.257 614.705 449.702 620.848L368.698 660.483C347.101 671.05 325.177 646.7 337.943 626.327L385.828 549.909C393.25 538.065 389.935 522.469 378.338 514.668L303.511 464.333C283.561 450.914 293.686 419.752 317.714 420.622L407.836 423.882C421.803 424.387 433.652 413.719 434.61 399.775L440.787 309.805C442.434 285.819 474.484 279.007 485.744 300.25Z" stroke="white" stroke-width="2"/>
<path opacity="0.896552" d="M497.328 304.461L533.857 383.054C539.747 395.728 554.633 401.442 567.491 395.965L647.225 362.001C669.345 352.579 689.965 378.043 676.15 397.72L626.351 468.65C618.32 480.089 620.814 495.837 631.987 504.234L701.267 556.305C720.487 570.75 708.745 601.339 684.796 599.213L598.469 591.551C584.547 590.316 572.156 600.35 570.47 614.224L560.016 700.258C557.116 724.125 524.754 729.251 514.621 707.448L478.093 628.855C472.202 616.181 457.317 610.467 444.458 615.944L364.724 649.908C342.604 659.33 321.984 633.866 335.8 614.189L385.598 543.259C393.629 531.82 391.135 516.072 379.962 507.675L310.682 455.604C291.463 441.159 303.205 410.57 327.153 412.696L413.48 420.358C427.402 421.593 439.793 411.559 441.479 397.685L451.933 311.651C454.833 287.784 487.195 282.658 497.328 304.461Z" stroke="white" stroke-width="2"/>
<path opacity="0.931035" d="M508.414 309.308L539.466 386.444C544.685 399.41 559.251 405.895 572.379 401.098L650.48 372.56C673.062 364.309 692.321 390.816 677.495 409.744L626.22 475.204C617.601 486.206 619.268 502.063 629.986 511.034L693.75 564.402C712.188 579.834 698.861 609.766 675.056 606.39L592.729 594.714C578.89 592.752 565.991 602.124 563.582 615.891L549.245 697.797C545.1 721.48 512.514 724.905 503.536 702.601L472.484 625.466C467.264 612.5 452.699 606.015 439.571 610.812L361.47 639.349C338.887 647.601 319.629 621.093 334.455 602.166L385.73 536.706C394.349 525.703 392.682 509.846 381.964 500.876L318.199 447.507C299.762 432.076 313.089 402.143 336.894 405.519L419.221 417.195C433.059 419.158 445.958 409.786 448.368 396.019L462.704 314.113C466.849 290.43 499.435 287.005 508.414 309.308Z" stroke="white" stroke-width="2"/>
<path opacity="0.965517" d="M518.966 314.75L544.798 390.08C549.332 403.301 563.538 410.539 576.899 406.436L653.026 383.057C676.01 375.999 693.855 403.478 678.059 421.603L625.737 481.64C616.554 492.177 617.389 508.099 627.623 517.618L685.933 571.857C703.537 588.232 688.662 617.426 665.067 612.809L586.913 597.515C573.197 594.831 559.825 603.515 556.698 617.137L538.881 694.755C533.502 718.188 500.782 719.903 492.983 697.16L467.15 621.83C462.616 608.609 448.41 601.371 435.049 605.474L358.922 628.853C335.939 635.911 318.093 608.432 333.89 590.306L386.211 530.27C395.394 519.733 394.56 503.811 384.326 494.292L326.015 440.053C308.411 423.678 323.286 394.484 346.881 399.101L425.035 414.395C438.752 417.079 452.124 408.395 455.251 394.773L473.067 317.155C478.446 293.722 511.167 292.007 518.966 314.75Z" stroke="white" stroke-width="2"/>
<path d="M528.955 320.742L549.845 393.941C553.681 407.381 567.489 415.353 581.046 411.955L654.883 393.447C678.204 387.601 694.587 415.976 677.864 433.25L624.917 487.941C615.195 497.983 615.195 513.927 624.917 523.968L677.864 578.659C694.587 595.933 678.204 624.309 654.883 618.463L581.046 599.955C567.489 596.556 553.681 604.528 549.845 617.968L528.956 691.167C522.357 714.287 489.592 714.287 482.994 691.167L462.104 617.968C458.269 604.528 444.461 596.556 430.903 599.955L357.067 618.463C333.745 624.308 317.363 595.933 334.086 578.659L387.033 523.968C396.754 513.927 396.754 497.983 387.033 487.941L334.086 433.25C317.363 415.976 333.745 387.601 357.067 393.447L430.903 411.955C444.461 415.353 458.269 407.381 462.104 393.941L482.994 320.742C489.592 297.623 522.357 297.622 528.955 320.742Z" stroke="white" stroke-width="2"/>
</g>
</svg>
