<svg width="1680" height="710" viewBox="0 0 1680 710" fill="none" xmlns="http://www.w3.org/2000/svg" xmlns:xlink="http://www.w3.org/1999/xlink">
<mask id="mask0_87_54" style="mask-type:alpha" maskUnits="userSpaceOnUse" x="0" y="0" width="1680" height="710">
<path d="M1680 625.858V0H0V625.858C0 638.964 10.1211 649.845 23.1926 650.792L837.707 709.834C839.234 709.944 840.766 709.944 842.293 709.834L1656.81 650.792C1669.88 649.845 1680 638.964 1680 625.858Z" fill="#C4C4C4"/>
</mask>
<g mask="url(#mask0_87_54)">
<path d="M1680 625.858V0H0V625.858C0 638.964 10.1211 649.845 23.1926 650.792L837.707 709.834C839.234 709.944 840.766 709.944 842.293 709.834L1656.81 650.792C1669.88 649.845 1680 638.964 1680 625.858Z" fill="#0E0D0D"/>
<rect x="594.255" y="-75.5529" width="1109.48" height="799.563" fill="url(#pattern0)"/>
<rect x="594.255" y="-75.5529" width="1109.48" height="799.563" fill="url(#paint0_radial_87_54)" fill-opacity="0.2"/>
<path d="M602.288 43.0787L619.036 -16.5H549V696.917L660.652 701.5H718L645.934 668.401L619.036 608.822L606.856 524.292L619.036 411.754L637.814 258.988L630.709 135.248L655.577 67.5213L602.288 43.0787Z" fill="#0E0D0D"/>
<path d="M612.018 10.8064L630.252 -54H554V722.015L675.562 727H738L616.991 679.139L620.414 675.332L607.893 595.383L616.991 534.242L630.252 411.831L650.697 245.66L642.961 111.062L670.036 37.3936L612.018 10.8064Z" fill="url(#paint1_linear_87_54)" fill-opacity="0.2"/>
<path d="M602.288 43.0787L619.036 -16.5H549V696.917L660.652 701.5H718L645.934 668.401L619.036 608.822L606.856 524.292L619.036 411.754L637.814 258.988L630.709 135.248L655.577 67.5213L602.288 43.0787Z" fill="#0E0D0D"/>
</g>
<defs>
<pattern id="pattern0" patternContentUnits="objectBoundingBox" width="1" height="1">
<use xlink:href="#image0_87_54" transform="translate(-0.0284317) scale(0.00034731 0.000481928)"/>
</pattern>
<radialGradient id="paint0_radial_87_54" cx="0" cy="0" r="1" gradientUnits="userSpaceOnUse" gradientTransform="translate(1148.99 324.229) rotate(90) scale(399.782 554.738)">
<stop/>
<stop offset="1" stop-opacity="0"/>
</radialGradient>
<linearGradient id="paint1_linear_87_54" x1="646" y1="-54" x2="646" y2="727" gradientUnits="userSpaceOnUse">
<stop stop-color="#9102D4"/>
<stop offset="1" stop-color="#9102D4" stop-opacity="0"/>
</linearGradient>
<image id="image0_87_54" width="3043" height="2075" xlink:href="@img/kanion.png"></image>
</defs>
</svg>
