<svg width="202" height="206" viewBox="0 0 202 206" fill="none" xmlns="http://www.w3.org/2000/svg">
<path d="M69.0909 100.445H60.0909L28.6068 23.3077H13.0862L2 38.9231L28.6068 105.846V134.846L69.0909 100.445ZM69.0909 100.445L79.6031 1H108.427L103.993 92.4615L69.0909 100.445ZM6.43447 161.615L79.6031 103.615H99.5582V143.769L35.2585 204L6.43447 188.385V159.385M57.3159 191.571L113.149 140.821L106.945 118.036L114.7 111.304C114.7 111.304 141.686 131.261 143.903 137.077C146.12 142.893 146.12 152.692 146.12 152.692L108.427 199.538C92.47 202.964 80.5796 204 57.3159 191.571ZM108.427 96.9231L126.165 101.385V109.129L161.641 81.3077C161.641 79.8205 160.31 75.5077 154.989 70.1538C149.668 64.8 143.903 66.4359 141.686 67.9231L108.427 96.9231ZM166.397 64.6964L163.858 70.1538L169.499 70.9107L172.727 65.6923L166.397 64.6964ZM168.292 45.6154L174.151 50.0769H181.596L186.03 43.3846L176.219 39.3214L168.292 45.6154ZM194.899 36.6923L192.245 40.3571L194.899 43.9821L200 42.4286L199.483 38.2857L194.899 36.6923Z" stroke="#B9FD02" stroke-opacity="0.5" stroke-width="2"/>
</svg>
