<svg width="286" height="19" viewBox="0 0 286 19" fill="none" xmlns="http://www.w3.org/2000/svg">
<g clip-path="url(#clip0_22_5602)">
<path d="M62 19V13.8182L70 5.52727V0" stroke="#585858"/>
<path d="M70 19V13.8182L78 5.52727V0" stroke="#585858"/>
<path d="M10.794 15.14H10.038C9.058 15.14 8.23667 15.0793 7.574 14.958C6.92067 14.8367 6.356 14.622 5.88 14.314C5.404 14.006 5.054 13.586 4.83 13.054C4.61533 12.522 4.508 11.8547 4.508 11.052V9.708C4.508 8.028 4.91867 6.83333 5.74 6.124C6.57067 5.41467 7.966 5.06 9.926 5.06H10.528C12.2827 5.06 13.5707 5.256 14.392 5.648C15.2227 6.03067 15.722 6.67467 15.89 7.58H14.602C14.4807 7.02 14.1027 6.63267 13.468 6.418C12.8333 6.20333 11.7693 6.096 10.276 6.096C9.05333 6.096 8.12467 6.208 7.49 6.432C6.85533 6.64667 6.40267 7.02 6.132 7.552C5.87067 8.07467 5.74 8.84933 5.74 9.876V10.268H5.81C6.02467 9.72667 6.496 9.33467 7.224 9.092C7.952 8.84 9.07667 8.714 10.598 8.714C12.4927 8.714 13.8647 8.92867 14.714 9.358C15.5633 9.778 15.988 10.5573 15.988 11.696V12.088C15.988 13.208 15.5633 13.9967 14.714 14.454C13.8647 14.9113 12.558 15.14 10.794 15.14ZM10.318 14.132C11.914 14.132 13.048 13.9827 13.72 13.684C14.392 13.3853 14.728 12.872 14.728 12.144V11.738C14.728 11.0007 14.392 10.4827 13.72 10.184C13.048 9.88533 11.914 9.736 10.318 9.736C8.75 9.736 7.616 9.88533 6.916 10.184C6.23467 10.4733 5.894 10.9913 5.894 11.738V12.144C5.894 12.872 6.23 13.3853 6.902 13.684C7.574 13.9827 8.71267 14.132 10.318 14.132Z" fill="#585858"/>
<path d="M28.794 15.14H28.038C27.058 15.14 26.2367 15.0793 25.574 14.958C24.9207 14.8367 24.356 14.622 23.88 14.314C23.404 14.006 23.054 13.586 22.83 13.054C22.6153 12.522 22.508 11.8547 22.508 11.052V9.708C22.508 8.028 22.9187 6.83333 23.74 6.124C24.5707 5.41467 25.966 5.06 27.926 5.06H28.528C30.2827 5.06 31.5707 5.256 32.392 5.648C33.2227 6.03067 33.722 6.67467 33.89 7.58H32.602C32.4807 7.02 32.1027 6.63267 31.468 6.418C30.8333 6.20333 29.7693 6.096 28.276 6.096C27.0533 6.096 26.1247 6.208 25.49 6.432C24.8553 6.64667 24.4027 7.02 24.132 7.552C23.8707 8.07467 23.74 8.84933 23.74 9.876V10.268H23.81C24.0247 9.72667 24.496 9.33467 25.224 9.092C25.952 8.84 27.0767 8.714 28.598 8.714C30.4927 8.714 31.8647 8.92867 32.714 9.358C33.5633 9.778 33.988 10.5573 33.988 11.696V12.088C33.988 13.208 33.5633 13.9967 32.714 14.454C31.8647 14.9113 30.558 15.14 28.794 15.14ZM28.318 14.132C29.914 14.132 31.048 13.9827 31.72 13.684C32.392 13.3853 32.728 12.872 32.728 12.144V11.738C32.728 11.0007 32.392 10.4827 31.72 10.184C31.048 9.88533 29.914 9.736 28.318 9.736C26.75 9.736 25.616 9.88533 24.916 10.184C24.2347 10.4733 23.894 10.9913 23.894 11.738V12.144C23.894 12.872 24.23 13.3853 24.902 13.684C25.574 13.9827 26.7127 14.132 28.318 14.132Z" fill="#585858"/>
<path d="M46.794 15.14H46.038C45.058 15.14 44.2367 15.0793 43.574 14.958C42.9207 14.8367 42.356 14.622 41.88 14.314C41.404 14.006 41.054 13.586 40.83 13.054C40.6153 12.522 40.508 11.8547 40.508 11.052V9.708C40.508 8.028 40.9187 6.83333 41.74 6.124C42.5707 5.41467 43.966 5.06 45.926 5.06H46.528C48.2827 5.06 49.5707 5.256 50.392 5.648C51.2227 6.03067 51.722 6.67467 51.89 7.58H50.602C50.4807 7.02 50.1027 6.63267 49.468 6.418C48.8333 6.20333 47.7693 6.096 46.276 6.096C45.0533 6.096 44.1247 6.208 43.49 6.432C42.8553 6.64667 42.4027 7.02 42.132 7.552C41.8707 8.07467 41.74 8.84933 41.74 9.876V10.268H41.81C42.0247 9.72667 42.496 9.33467 43.224 9.092C43.952 8.84 45.0767 8.714 46.598 8.714C48.4927 8.714 49.8647 8.92867 50.714 9.358C51.5633 9.778 51.988 10.5573 51.988 11.696V12.088C51.988 13.208 51.5633 13.9967 50.714 14.454C49.8647 14.9113 48.558 15.14 46.794 15.14ZM46.318 14.132C47.914 14.132 49.048 13.9827 49.72 13.684C50.392 13.3853 50.728 12.872 50.728 12.144V11.738C50.728 11.0007 50.392 10.4827 49.72 10.184C49.048 9.88533 47.914 9.736 46.318 9.736C44.75 9.736 43.616 9.88533 42.916 10.184C42.2347 10.4733 41.894 10.9913 41.894 11.738V12.144C41.894 12.872 42.23 13.3853 42.902 13.684C43.574 13.9827 44.7127 14.132 46.318 14.132Z" fill="#585858"/>
<path d="M92.592 14.504V15.26H89.4V4.2H92.592V4.956H90.254V14.504H92.592ZM94.6024 4.956V4.2H97.7944V15.26H94.6024V14.504H96.9404V4.956H94.6024Z" fill="#585858"/>
<path d="M128.064 15.14H126.902C124.811 15.14 123.304 14.79 122.38 14.09C121.465 13.3807 121.008 12.27 121.008 10.758V9.442C121.008 7.93 121.465 6.824 122.38 6.124C123.304 5.41467 124.811 5.06 126.902 5.06H128.064C130.155 5.06 131.657 5.41467 132.572 6.124C133.496 6.824 133.958 7.93 133.958 9.442V10.758C133.958 12.27 133.496 13.3807 132.572 14.09C131.657 14.79 130.155 15.14 128.064 15.14ZM127.476 14.118C128.549 14.118 129.431 14.0433 130.122 13.894C130.813 13.7447 131.345 13.5067 131.718 13.18C132.101 12.8533 132.362 12.4753 132.502 12.046C132.642 11.6167 132.712 11.0753 132.712 10.422V9.778C132.712 9.12467 132.642 8.58333 132.502 8.154C132.362 7.72467 132.101 7.34667 131.718 7.02C131.345 6.69333 130.813 6.46 130.122 6.32C129.431 6.17067 128.549 6.096 127.476 6.096C126.403 6.096 125.521 6.17067 124.83 6.32C124.149 6.46 123.621 6.69333 123.248 7.02C122.875 7.34667 122.618 7.72467 122.478 8.154C122.338 8.58333 122.268 9.12467 122.268 9.778V10.422C122.268 10.9447 122.31 11.3927 122.394 11.766C122.478 12.13 122.632 12.4707 122.856 12.788C123.08 13.096 123.383 13.3433 123.766 13.53C124.158 13.7167 124.657 13.8613 125.264 13.964C125.88 14.0667 126.617 14.118 127.476 14.118Z" fill="#585858"/>
<path d="M174.662 9.526L173.962 10.03L172.87 8.406H172.8L171.708 10.03L171.008 9.526L172.212 7.944L172.198 7.902L170.308 7.3L170.602 6.474L172.45 7.174L172.506 7.146L172.422 5.2H173.248L173.164 7.146L173.22 7.174L175.068 6.474L175.362 7.3L173.486 7.902L173.472 7.944L174.662 9.526ZM180.56 9.526L179.86 10.03L178.768 8.406H178.698L177.606 10.03L176.906 9.526L178.11 7.944L178.096 7.902L176.206 7.3L176.5 6.474L178.348 7.174L178.404 7.146L178.32 5.2H179.146L179.062 7.146L179.118 7.174L180.966 6.474L181.26 7.3L179.384 7.902L179.37 7.944L180.56 9.526Z" fill="#585858"/>
<path d="M138.716 10.87V15H137.428V5.2H145.464C146.873 5.2 147.867 5.40067 148.446 5.802C149.025 6.194 149.314 6.81467 149.314 7.664V8.028C149.314 8.70933 149.151 9.22733 148.824 9.582C148.507 9.92733 148.031 10.1373 147.396 10.212V10.268C148.068 10.352 148.553 10.5573 148.852 10.884C149.16 11.2013 149.314 11.7287 149.314 12.466V15H148.026V12.718C148.026 11.962 147.821 11.4673 147.41 11.234C147.009 10.9913 146.183 10.87 144.932 10.87H138.716ZM144.932 6.278H138.716V9.792H145.1C146.201 9.792 146.962 9.67533 147.382 9.442C147.811 9.19933 148.026 8.756 148.026 8.112V7.958C148.026 7.30467 147.807 6.86133 147.368 6.628C146.929 6.39467 146.117 6.278 144.932 6.278Z" fill="#585858"/>
<path d="M156.662 9.526L155.962 10.03L154.87 8.406H154.8L153.708 10.03L153.008 9.526L154.212 7.944L154.198 7.902L152.308 7.3L152.602 6.474L154.45 7.174L154.506 7.146L154.422 5.2H155.248L155.164 7.146L155.22 7.174L157.068 6.474L157.362 7.3L155.486 7.902L155.472 7.944L156.662 9.526ZM162.56 9.526L161.86 10.03L160.768 8.406H160.698L159.606 10.03L158.906 9.526L160.11 7.944L160.096 7.902L158.206 7.3L158.5 6.474L160.348 7.174L160.404 7.146L160.32 5.2H161.146L161.062 7.146L161.118 7.174L162.966 6.474L163.26 7.3L161.384 7.902L161.37 7.944L162.56 9.526Z" fill="#585858"/>
<path d="M188.592 15.476V16.26C187.575 16.064 186.763 15.532 186.156 14.664C185.549 13.796 185.246 12.5873 185.246 11.038V10.422C185.246 8.87267 185.549 7.664 186.156 6.796C186.763 5.928 187.575 5.396 188.592 5.2V5.984C187.827 6.18933 187.22 6.66533 186.772 7.412C186.333 8.15867 186.114 9.19467 186.114 10.52V10.94C186.114 12.2653 186.333 13.3013 186.772 14.048C187.22 14.7947 187.827 15.2707 188.592 15.476ZM190.448 5.984V5.2C191.466 5.396 192.278 5.928 192.884 6.796C193.491 7.664 193.794 8.87267 193.794 10.422V11.038C193.794 12.5873 193.491 13.796 192.884 14.664C192.278 15.532 191.466 16.064 190.448 16.26V15.476C191.214 15.2707 191.816 14.7947 192.254 14.048C192.702 13.3013 192.926 12.2653 192.926 10.94V10.52C192.926 9.19467 192.702 8.15867 192.254 7.412C191.816 6.66533 191.214 6.18933 190.448 5.984Z" fill="#585858"/>
<path d="M108.662 9.526L107.962 10.03L106.87 8.406H106.8L105.708 10.03L105.008 9.526L106.212 7.944L106.198 7.902L104.308 7.3L104.602 6.474L106.45 7.174L106.506 7.146L106.422 5.2H107.248L107.164 7.146L107.22 7.174L109.068 6.474L109.362 7.3L107.486 7.902L107.472 7.944L108.662 9.526ZM114.56 9.526L113.86 10.03L112.768 8.406H112.698L111.606 10.03L110.906 9.526L112.11 7.944L112.096 7.902L110.206 7.3L110.5 6.474L112.348 7.174L112.404 7.146L112.32 5.2H113.146L113.062 7.146L113.118 7.174L114.966 6.474L115.26 7.3L113.384 7.902L113.37 7.944L114.56 9.526Z" fill="#585858"/>
<path d="M218.18 13.922V15H207.428V5.2H218.18V6.278H208.716V9.554H218.18V10.632H208.716V13.922H218.18Z" fill="#585858"/>
<path d="M246.372 10.016L252.546 15H250.698L245.434 10.716H245.364L240.142 15H238.322L244.496 10.002L238.546 5.2H240.38L245.42 9.302H245.476L250.502 5.2H252.322L246.372 10.016Z" fill="#585858"/>
<path d="M258.662 12.526L257.962 13.03L256.87 11.406H256.8L255.708 13.03L255.008 12.526L256.212 10.944L256.198 10.902L254.308 10.3L254.602 9.474L256.45 10.174L256.506 10.146L256.422 8.2H257.248L257.164 10.146L257.22 10.174L259.068 9.474L259.362 10.3L257.486 10.902L257.472 10.944L258.662 12.526ZM264.56 12.526L263.86 13.03L262.768 11.406H262.698L261.606 13.03L260.906 12.526L262.11 10.944L262.096 10.902L260.206 10.3L260.5 9.474L262.348 10.174L262.404 10.146L262.32 8.2H263.146L263.062 10.146L263.118 10.174L264.966 9.474L265.26 10.3L263.384 10.902L263.37 10.944L264.56 12.526Z" fill="#585858"/>
<path d="M282.18 13.922V15H271.428V5.2H282.18V6.278H272.716V9.554H282.18V10.632H272.716V13.922H282.18Z" fill="#585858"/>
<path d="M226.662 12.526L225.962 13.03L224.87 11.406H224.8L223.708 13.03L223.008 12.526L224.212 10.944L224.198 10.902L222.308 10.3L222.602 9.474L224.45 10.174L224.506 10.146L224.422 8.2H225.248L225.164 10.146L225.22 10.174L227.068 9.474L227.362 10.3L225.486 10.902L225.472 10.944L226.662 12.526ZM232.56 12.526L231.86 13.03L230.768 11.406H230.698L229.606 13.03L228.906 12.526L230.11 10.944L230.096 10.902L228.206 10.3L228.5 9.474L230.348 10.174L230.404 10.146L230.32 8.2H231.146L231.062 10.146L231.118 10.174L232.966 9.474L233.26 10.3L231.384 10.902L231.37 10.944L232.56 12.526Z" fill="#585858"/>
</g>
<defs>
<clipPath id="clip0_22_5602">
<rect width="286" height="19" fill="white"/>
</clipPath>
</defs>
</svg>
