<svg width="238" height="59" viewBox="0 0 238 59" fill="none" xmlns="http://www.w3.org/2000/svg">
<path opacity="0.4" d="M81.4788 1.49525L83.4787 1.48319L83.4668 -0.51677L81.4668 -0.50471L81.4788 1.49525ZM81.8165 57.9568L81.8284 59.9567L83.8284 59.9447L83.8164 57.9447L81.8165 57.9568ZM58.1833 58.0993L56.7585 59.5029L57.351 60.1044L58.1953 60.0993L58.1833 58.0993ZM16.632 15.9215L18.0567 14.5179L17.4643 13.9165L16.62 13.9216L16.632 15.9215ZM16.0673 15.9249L16.0554 13.925L14.0554 13.937L14.0674 15.937L16.0673 15.9249ZM16.3211 58.3517L16.3331 60.3517L18.333 60.3397L18.3211 58.3397L16.3211 58.3517ZM0.834527 58.4451L-1.16544 58.4572L-1.15347 60.4572L0.846489 60.4451L0.834527 58.4451ZM0.496812 1.98361L0.48485 -0.0163547L-1.51511 -0.00429413L-1.50315 1.99567L0.496812 1.98361ZM24.13 1.84109L25.5575 0.440208L24.9646 -0.163978L24.118 -0.158873L24.13 1.84109ZM65.6011 44.1L64.1737 45.5009L64.7666 46.1051L65.6131 46.1L65.6011 44.1ZM66.2464 44.0961L66.2584 46.0961L68.2583 46.084L68.2464 44.084L66.2464 44.0961ZM65.9922 1.58865L65.9802 -0.411319L63.9802 -0.399259L63.9922 1.60071L65.9922 1.58865ZM79.4788 1.50732L79.8165 57.9688L83.8164 57.9447L83.4787 1.48319L79.4788 1.50732ZM81.8045 55.9568L58.1713 56.0993L58.1953 60.0993L81.8284 59.9567L81.8045 55.9568ZM59.6081 56.6957L18.0567 14.5179L15.2072 17.3252L56.7585 59.5029L59.6081 56.6957ZM16.62 13.9216L16.0554 13.925L16.0793 17.9249L16.6439 17.9215L16.62 13.9216ZM14.0674 15.937L14.3212 58.3638L18.3211 58.3397L18.0673 15.9129L14.0674 15.937ZM16.3092 56.3518L0.822564 56.4452L0.846489 60.4451L16.3331 60.3517L16.3092 56.3518ZM2.83449 58.4331L2.49678 1.97155L-1.50315 1.99567L-1.16544 58.4572L2.83449 58.4331ZM0.508774 3.98357L24.1419 3.84106L24.118 -0.158873L0.48485 -0.0163547L0.508774 3.98357ZM22.7025 3.24197L64.1737 45.5009L67.0286 42.6991L25.5575 0.440208L22.7025 3.24197ZM65.6131 46.1L66.2584 46.0961L66.2345 42.0961L65.5892 42.1L65.6131 46.1ZM68.2464 44.084L67.9921 1.57658L63.9922 1.60071L64.2465 44.1082L68.2464 44.084ZM66.0041 3.58861L81.4907 3.49522L81.4668 -0.50471L65.9802 -0.411319L66.0041 3.58861ZM109.932 35.7664L109.92 33.7665L107.92 33.7785L107.932 35.7785L109.932 35.7664ZM110.064 57.7864L110.076 59.7864L112.076 59.7743L112.064 57.7744L110.064 57.7864ZM94.2544 57.8818L92.2544 57.8938L92.2664 59.8938L94.2663 59.8817L94.2544 57.8818ZM93.9167 1.42025L93.9047 -0.579716L91.9047 -0.567655L91.9167 1.43231L93.9167 1.42025ZM159.573 1.02431L161.573 1.01225L161.561 -0.987713L159.561 -0.975653L159.573 1.02431ZM159.645 12.9619L159.657 14.9619L161.657 14.9498L161.645 12.9498L159.645 12.9619ZM109.797 13.2625L109.785 11.2625L107.785 11.2746L107.797 13.2746L109.797 13.2625ZM109.86 23.8289L107.861 23.8409L107.872 25.8409L109.872 25.8288L109.86 23.8289ZM159.708 23.5283L161.708 23.5162L161.696 21.5162L159.696 21.5283L159.708 23.5283ZM159.779 35.4658L159.791 37.4658L161.791 37.4538L161.779 35.4538L159.779 35.4658ZM107.932 35.7785L108.064 57.7985L112.064 57.7744L111.932 35.7544L107.932 35.7785ZM110.052 55.7865L94.2424 55.8818L94.2663 59.8817L110.076 59.7864L110.052 55.7865ZM96.2543 57.8697L95.9166 1.40819L91.9167 1.43231L92.2544 57.8938L96.2543 57.8697ZM93.9286 3.42021L159.585 3.02428L159.561 -0.975653L93.9047 -0.579716L93.9286 3.42021ZM157.573 1.03637L157.645 12.974L161.645 12.9498L161.573 1.01225L157.573 1.03637ZM159.633 10.9619L109.785 11.2625L109.809 15.2625L159.657 14.9619L159.633 10.9619ZM107.797 13.2746L107.861 23.8409L111.86 23.8168L111.797 13.2504L107.797 13.2746ZM109.872 25.8288L159.72 25.5282L159.696 21.5283L109.849 21.8289L109.872 25.8288ZM157.708 23.5403L157.779 35.4779L161.779 35.4538L161.708 23.5162L157.708 23.5403ZM159.767 33.4659L109.92 33.7665L109.944 37.7664L159.791 37.4658L159.767 33.4659ZM209.125 13.7928L209.113 11.7928L207.113 11.8049L207.125 13.8048L209.125 13.7928ZM209.384 57.1875L209.396 59.1875L211.396 59.1754L211.384 57.1754L209.384 57.1875ZM193.575 57.2828L191.575 57.2949L191.587 59.2949L193.587 59.2828L193.575 57.2828ZM193.315 13.8881L195.315 13.8761L195.303 11.8761L193.303 11.8881L193.315 13.8881ZM165.569 14.0554L163.569 14.0675L163.581 16.0675L165.581 16.0554L165.569 14.0554ZM165.49 0.988629L165.478 -1.01134L163.479 -0.999275L163.49 1.00069L165.49 0.988629ZM236.713 0.559129L238.713 0.547069L238.701 -1.4529L236.701 -1.44084L236.713 0.559129ZM236.791 13.6259L236.803 15.6259L238.803 15.6138L238.791 13.6139L236.791 13.6259ZM207.125 13.8048L207.384 57.1996L211.384 57.1754L211.125 13.7807L207.125 13.8048ZM209.372 55.1875L193.563 55.2829L193.587 59.2828L209.396 59.1875L209.372 55.1875ZM195.575 57.2708L195.315 13.8761L191.315 13.9002L191.575 57.2949L195.575 57.2708ZM193.303 11.8881L165.557 12.0555L165.581 16.0554L193.327 15.8881L193.303 11.8881ZM167.569 14.0434L167.49 0.976568L163.49 1.00069L163.569 14.0675L167.569 14.0434ZM165.502 2.98859L236.725 2.55909L236.701 -1.44084L165.478 -1.01134L165.502 2.98859ZM234.713 0.57119L234.791 13.638L238.791 13.6139L238.713 0.547069L234.713 0.57119ZM236.779 11.626L209.113 11.7928L209.137 15.7927L236.803 15.6259L236.779 11.626Z" fill="url(#paint0_linear_56_947)"/>
<defs>
<linearGradient id="paint0_linear_56_947" x1="117.168" y1="-28.258" x2="117.776" y2="72.637" gradientUnits="userSpaceOnUse">
<stop stop-color="white"/>
<stop offset="1" stop-color="white" stop-opacity="0"/>
</linearGradient>
</defs>
</svg>
