<svg width="804" height="707" viewBox="0 0 804 707" fill="none" xmlns="http://www.w3.org/2000/svg">
<path d="M194.168 -190.453L267.029 -59.9427L320.178 -40.572L432.231 -103.689L487.385 -34.7406L604.157 -24.7461L535.075 130.432L605.94 156.26L589.513 266.753L499.301 362.879L582.54 440.81L515.346 745.721L306.072 669.449L252.608 730.122L99.805 674.431L47.0676 598.849L-142.692 613.605L-176.504 541.163L-126.148 402.957L-152.307 309.507L-55.2479 208.362L-11.3379 87.8457L-87.0285 20.1803L-19.7536 -164.464L194.168 -190.453Z" stroke="#716B6B" stroke-opacity="0.05" stroke-width="3"/>
<path d="M219.574 243.755L242.375 240.941L267.731 250.182L278.653 275.206L274.803 300.072L283.661 308.393L276.451 341.015L254.162 332.892L226.572 325.383L206.347 326.991L202.755 319.249L208.144 304.459L220.43 270.739L212.375 263.514L219.574 243.755Z" stroke="#716B6B" stroke-opacity="0.05" stroke-width="3"/>
<path d="M196.98 -157.373L265.106 -37.0782L316.101 -18.4923L419.911 -75.7422L471.233 -11.1704L578.838 -0.98172L514.961 143.117L581.037 167.59L565.615 270.771L482.104 360.689L558.065 432.277L495.239 713.234L301.061 642.562L250.673 698.237L108.111 646.969L59.3008 576.942L-115.937 590.236L-146.939 522.836L-100.281 394.78L-123.485 305.979L-34.2447 212.406L5.95027 100.959L-63.6246 37.7701L-1.29024 -133.314L196.98 -157.373Z" stroke="#716B6B" stroke-opacity="0.05" stroke-width="3"/>
<path d="M200.049 -124.302L263.522 -14.0514L312.433 3.77468L408.143 -47.6968L455.698 12.5905L554.28 22.983L495.516 156.214L556.89 179.366L542.446 275.386L465.522 359.232L534.302 424.577L475.744 681.992L296.405 616.826L249.022 667.586L116.513 620.674L71.568 556.102L-89.3835 567.961L-117.612 505.508L-74.5842 387.412L-94.86 303.131L-13.3141 216.991L23.2248 114.448L-40.324 55.6474L17.1616 -102.129L200.049 -124.302Z" stroke="#716B6B" stroke-opacity="0.05" stroke-width="3"/>
<path d="M202.895 -91.3117L261.625 8.74401L308.383 25.7854L395.857 -19.8407L439.577 36.0797L528.994 46.6592L475.424 168.846L532.007 190.643L518.56 279.373L448.328 357.038L509.827 416.048L455.613 649.575L291.369 590.008L247.056 635.787L124.789 593.297L83.775 534.27L-62.6613 544.683L-88.075 487.261L-48.7337 379.284L-66.0494 299.636L7.68797 221.042L40.5216 127.54L-16.9086 73.2091L35.6515 -71.0482L202.895 -91.3117Z" stroke="#716B6B" stroke-opacity="0.05" stroke-width="3"/>
<path d="M206.085 -59.262L260.033 30.6991L304.637 46.9554L383.913 7.0759L423.777 58.6809L504.041 69.4199L455.597 180.744L507.39 201.188L494.895 282.748L431.308 354.363L485.508 407.087L435.521 617.049L286.373 563.083L245.101 603.96L133.075 565.896L96.0125 512.355L-35.9387 521.404L-58.515 468.951L-22.8034 370.936L-37.1246 295.827L28.8539 224.644L58.0318 140.048L6.73549 90.1434L54.4463 -40.8044L206.085 -59.262Z" stroke="#716B6B" stroke-opacity="0.05" stroke-width="3"/>
<path d="M208.931 -26.272L258.134 53.4951L300.581 68.9655L371.623 34.9301L407.651 82.1677L478.752 93.093L435.5 193.372L482.503 212.462L471.003 286.731L414.109 352.164L461.03 398.554L415.387 584.632L281.335 536.265L243.134 572.161L141.351 538.519L108.219 490.522L-9.21817 498.125L-28.9801 450.704L3.04493 362.807L-8.31749 292.333L49.854 228.695L75.3276 153.14L30.1487 107.705L72.9341 -9.72422L208.931 -26.272Z" stroke="#716B6B" stroke-opacity="0.05" stroke-width="3"/>
<path d="M211.996 6.79788L256.552 76.5142L296.927 91.2293L359.866 62.9823L392.128 105.939L454.199 117.074L416.063 206.485L458.366 224.257L447.844 291.368L397.539 350.732L437.269 390.873L395.891 553.391L276.68 510.532L241.478 541.508L149.743 512.225L120.478 469.684L17.3346 475.85L0.348363 433.374L28.743 355.442L20.3162 289.474L70.786 233.272L92.599 166.625L53.4514 125.577L91.3867 21.4591L211.996 6.79788Z" stroke="#716B6B" stroke-opacity="0.05" stroke-width="3"/>
<path d="M214.843 39.788L254.653 99.3113L292.873 113.241L347.578 90.8368L376.004 129.426L428.913 140.746L395.969 219.113L433.482 235.529L423.956 295.35L380.343 348.531L412.794 382.339L375.759 520.973L271.643 483.713L239.512 509.709L158.02 484.847L132.686 447.851L44.0562 452.571L29.8845 415.127L54.5927 347.313L49.1242 285.982L91.7867 237.325L109.895 179.718L76.8655 143.14L109.876 52.5397L214.843 39.788Z" stroke="#716B6B" stroke-opacity="0.05" stroke-width="3"/>
<path d="M217.692 72.7787L252.755 122.112L288.817 135.255L335.29 118.69L359.88 152.909L403.627 164.412L375.875 231.736L408.598 246.796L400.069 299.324L363.149 346.321L388.321 373.798L355.629 488.555L266.609 456.894L237.549 477.911L166.301 457.469L144.898 426.015L70.7798 429.293L59.4221 396.881L80.4441 339.183L77.9314 282.495L112.789 241.381L127.194 192.813L100.281 160.705L128.366 83.6214L217.692 72.7787Z" stroke="#716B6B" stroke-opacity="0.05" stroke-width="3"/>
<path d="M220.54 105.769L250.854 144.917L284.754 157.272L322.995 146.539L343.75 176.388L378.339 188.069L355.777 244.349L383.709 258.051L376.178 303.285L345.949 344.096L363.846 365.244L335.497 456.134L261.572 430.071L235.586 446.113L174.584 430.089L157.111 404.177L97.5017 406.015L88.9566 378.634L106.293 331.052L106.732 279.015L133.787 245.441L144.492 205.909L123.692 178.274L146.854 114.704L220.54 105.769Z" stroke="#716B6B" stroke-opacity="0.05" stroke-width="3"/>
<path d="M223.598 138.836L249.271 167.921L281.136 179.534L311.273 174.608L328.266 200.183L353.81 212.084L336.371 257.495L359.61 269.886L353.055 307.968L329.423 342.719L340.099 357.602L316 424.898L256.92 404.346L233.916 415.455L182.949 403.793L169.347 383.342L124.052 383.739L118.29 361.305L131.995 323.691L135.385 276.138L154.72 250.003L161.753 219.385L146.999 196.135L165.308 145.884L223.598 138.836Z" stroke="#716B6B" stroke-opacity="0.05" stroke-width="3"/>
<path d="M226.5 171.847L247.464 190.759L277.22 201.604L299.159 202.518L312.35 223.722L328.765 235.8L316.526 270.149L335.008 281.189L329.466 311.959L312.527 340.5L315.93 349.052L296.17 392.46L252.119 377.481L232.161 383.599L191.382 376.325L181.689 361.414L150.865 360.355L147.901 342.96L157.915 315.476L164.232 272.607L175.764 254.023L179.085 232.446L170.422 213.674L183.801 176.956L226.5 171.847Z" stroke="#716B6B" stroke-opacity="0.05" stroke-width="3"/>
<path d="M229.354 204.839L245.564 213.608L273.188 223.676L286.916 230.393L296.266 247.263L303.522 259.521L296.442 282.924L310.143 292.616L305.573 316.165L295.302 338.598L291.405 340.837L275.919 360.517L246.953 351.135L230.039 352.307L199.486 349.456L193.732 340.059L177.407 337.593L177.271 325.193L183.628 307.746L192.93 269.445L196.674 258.336L196.311 245.73L193.777 231.401L202.27 208.092L229.354 204.839Z" stroke="#716B6B" stroke-opacity="0.05" stroke-width="3"/>
</svg>
