<svg width="189" height="707" viewBox="0 0 189 707" fill="none" xmlns="http://www.w3.org/2000/svg">
<path d="M53.2883 40.0787L70.036 -19.5H0V693.917L111.652 698.5H169L96.9339 665.401L70.036 605.822L57.8559 521.292L70.036 408.754L88.8138 255.988L81.7087 132.248L106.577 64.5213L53.2883 40.0787Z" fill="#0E0D0D"/>
<path d="M63.018 7.80638L81.2523 -57H5V719.015L126.562 724H189L67.991 676.139L71.4142 672.332L58.8935 592.383L67.991 531.242L81.2523 408.831L101.697 242.66L93.961 108.062L121.036 34.3936L63.018 7.80638Z" fill="url(#paint0_linear_14_164)" fill-opacity="0.2"/>
<path d="M53.2883 40.0787L70.036 -19.5H0V693.917L111.652 698.5H169L96.9339 665.401L70.036 605.822L57.8559 521.292L70.036 408.754L88.8138 255.988L81.7087 132.248L106.577 64.5213L53.2883 40.0787Z" fill="#0E0D0D"/>
<defs>
<linearGradient id="paint0_linear_14_164" x1="97" y1="-57" x2="97" y2="724" gradientUnits="userSpaceOnUse">
<stop stop-color="#9102D4"/>
<stop offset="1" stop-color="#9102D4" stop-opacity="0"/>
</linearGradient>
</defs>
</svg>
