<svg width="266" height="343" viewBox="0 0 266 343" fill="none" xmlns="http://www.w3.org/2000/svg" xmlns:xlink="http://www.w3.org/1999/xlink">
<mask id="mask0_7_21" style="mask-type:alpha" maskUnits="userSpaceOnUse" x="0" y="0" width="266" height="343">
<path d="M1 313.5V14L9.10062 1H222.957L253.199 26V303.5L264 313.5L254.819 322H227.277L211.616 342H34.4825L1 313.5Z" fill="#C4C4C4" stroke="#9102D4" stroke-width="2"/>
</mask>
<g mask="url(#mask0_7_21)">
<rect x="-5.4805" y="-3" width="264.62" height="318" fill="#C4C4C4"/>
<path d="M-80.0062 -4.00001C-80.0062 -12.8366 -72.8427 -20 -64.0062 -20H299.304C308.14 -20 315.304 -12.8366 315.304 -4V309H-80.0062V-4.00001Z" fill="url(#pattern0)"/>
<path d="M198.955 -7.32325L216.212 -7.45068L261.87 30.0366L263.818 46.1151L198.955 -7.32325Z" fill="black"/>
<path d="M6 39.9999L1.00003 33.9999L1.00004 90.9999L6.00003 80.9999L6 39.9999Z" fill="black"/>
<path d="M19.3614 288H119.809L127.91 295.5H260.76L271.021 313L260.76 322.5L249.419 340L211.616 343H34.4826L-1.16016 315L19.3614 288Z" fill="#0E0D0D" stroke="black"/>
<path d="M1 313.5V14L9.10062 1H222.957L253.199 26V303.5L264 313.5L254.819 322H227.277L211.616 342H34.4825L1 313.5Z" stroke="black" stroke-width="2"/>
</g>
<defs>
<pattern id="pattern0" patternContentUnits="objectBoundingBox" width="1" height="1">
<use xlink:href="#image0_7_21" transform="translate(0 -0.109) scale(0.000777001 0.000933606)"/>
</pattern>
<image id="image0_7_21" width="1287" height="1931" xlink:href=""/>
</defs>
</svg>