<svg width="40" height="40" viewBox="0 0 40 40" fill="none" xmlns="http://www.w3.org/2000/svg">
<path d="M25.705 11.9745C25.7047 12.2762 25.7639 12.575 25.8793 12.8539C25.9946 13.1327 26.1638 13.386 26.3772 13.5994C26.5905 13.8128 26.8439 13.982 27.1227 14.0973C27.4016 14.2127 27.7004 14.2719 28.0021 14.2716C29.27 14.2713 30.2967 13.2439 30.2967 11.9749C30.2967 11.6734 30.2373 11.3749 30.1219 11.0964C30.0065 10.8178 29.8374 10.5647 29.6242 10.3515C29.411 10.1383 29.1579 9.96923 28.8794 9.85385C28.6009 9.73848 28.3023 9.67909 28.0008 9.67909C27.6993 9.67909 27.4008 9.73848 27.1223 9.85385C26.8437 9.96923 26.5906 10.1383 26.3774 10.3515C26.1642 10.5647 25.9951 10.8178 25.8798 11.0964C25.7644 11.3748 25.7051 11.6731 25.705 11.9745ZM25.705 11.9745L26.205 11.9749H25.705C25.705 11.9748 25.705 11.9746 25.705 11.9745ZM34.9117 13.8416L34.4125 13.8708C34.5046 15.4441 34.505 15.9475 34.5083 19.9874L34.5083 20.0233C34.5083 20.0234 34.5083 20.0235 34.5083 20.0237C34.5083 24.0913 34.4867 24.5915 34.4155 26.1843L34.4153 26.1843L34.4151 26.1966C34.3912 27.3877 34.1672 28.5608 33.7495 29.6733C33.3881 30.6037 32.837 31.4486 32.1312 32.1544C31.4254 32.8602 30.5804 33.4114 29.6501 33.7728C28.5378 34.1899 27.3628 34.415 26.1752 34.4384L26.1654 34.4385L26.1557 34.4391C24.5814 34.5314 24.0748 34.5316 20.0017 34.5316C15.9353 34.5316 15.4352 34.51 13.8406 34.4388L13.8406 34.4387L13.8348 34.4385C12.6439 34.3994 11.4685 34.1573 10.359 33.7227L10.3571 33.722C9.42543 33.3614 8.57918 32.8104 7.87247 32.1042C7.16641 31.3987 6.61513 30.5537 6.2538 29.6233C5.83607 28.509 5.61208 27.3359 5.58823 26.1466L5.58804 26.137L5.58747 26.1274C5.49515 24.5513 5.495 24.0464 5.495 19.9733C5.495 15.9069 5.51663 15.4068 5.58783 13.8122L5.588 13.8122L5.58824 13.7994C5.61069 12.6123 5.83577 11.4379 6.25377 10.3266C6.61448 9.3958 7.16537 8.55043 7.87127 7.84454C8.57711 7.13869 9.4224 6.58783 10.3531 6.22712C11.4651 5.81002 12.6397 5.58439 13.827 5.55982L13.8362 5.55963L13.8454 5.5591C15.4201 5.46841 15.9269 5.46826 20 5.46826C24.0668 5.46826 24.5667 5.48824 26.1593 5.55943L26.1593 5.55958L26.1714 5.55982C27.3593 5.58421 28.5344 5.80984 29.6468 6.2271C30.5774 6.58808 31.4226 7.13904 32.1284 7.84487C32.8343 8.55077 33.3853 9.39605 33.7463 10.3268C34.1705 11.4532 34.3957 12.6447 34.4117 13.8483L34.9117 13.8416ZM11.785 19.9649C11.785 24.4977 15.4572 28.1699 19.99 28.1699C22.1661 28.1699 24.2531 27.3055 25.7918 25.7667C27.3305 24.228 28.195 22.141 28.195 19.9649C28.195 17.7888 27.3305 15.7019 25.7918 14.1631C24.2531 12.6244 22.1661 11.7599 19.99 11.7599C15.4572 11.7599 11.785 15.4321 11.785 19.9649Z" stroke="#1DC7A8"/>
<path d="M24.495 19.965C24.495 22.453 22.478 24.47 19.99 24.47C17.5019 24.47 15.485 22.453 15.485 19.965C15.485 17.4769 17.5019 15.46 19.99 15.46C22.478 15.46 24.495 17.4769 24.495 19.965Z" stroke="#1DC7A8"/>
</svg>
