<svg width="588" height="565" viewBox="0 0 588 565" fill="none" xmlns="http://www.w3.org/2000/svg">
<ellipse cx="293.82" cy="282.169" rx="293.82" ry="282.169" fill="url(#paint0_radial_117_23)"/>
<path d="M84.7285 265.636L69.6934 210.068V274.387L84.7285 265.636Z" fill="#1DC7A8"/>
<path d="M223.69 73.1168L208.199 57.8027L275.173 62.1782H230.524L223.69 73.1168Z" fill="#1DC7A8"/>
<path d="M253.76 498.847L246.47 504.098H348.071L345.337 498.847H253.76Z" fill="#1DC7A8"/>
<path d="M529.404 331.268L534.416 324.705V375.897L529.404 371.084V331.268Z" fill="#1DC7A8"/>
<path d="M427.347 77.9298L409.578 67.8663H436.915L427.347 77.9298Z" fill="#1DC7A8"/>
<path d="M144.597 504.035L69.7378 440.423V134.169L149.606 67.4912H456.339L524.348 118.87V445.675L456.321 504.035H144.597Z" stroke="#1DC7A8"/>
<path d="M138.49 61.7407L66.0483 119.059V61.7407H138.49Z" fill="#1DC7A8" fill-opacity="0.2" stroke="#1DC7A8"/>
<path d="M481.109 504.098L531.226 458.156L545.35 504.098H481.109Z" fill="#1DC7A8" fill-opacity="0.2" stroke="#1DC7A8"/>
<path d="M529.86 102.432L474.275 59.9902H529.86V102.432Z" fill="#1DC7A8" fill-opacity="0.2" stroke="#1DC7A8"/>
<path d="M123.455 511.098L66.5034 459.906V511.098H123.455Z" fill="#1DC7A8" fill-opacity="0.2" stroke="#1DC7A8"/>
<defs>
<radialGradient id="paint0_radial_117_23" cx="0" cy="0" r="1" gradientUnits="userSpaceOnUse" gradientTransform="translate(293.82 282.169) rotate(90) scale(282.169 293.82)">
<stop stop-color="#1DC7A8"/>
<stop offset="1" stop-color="#1DC7A8" stop-opacity="0"/>
</radialGradient>
</defs>
</svg>
