<svg width="40" height="40" viewBox="0 0 40 40" fill="none" xmlns="http://www.w3.org/2000/svg">
<path d="M7.05769 30.476L7.05671 30.4757C6.43652 30.3086 5.87109 29.9816 5.41704 29.5273C4.96798 29.0779 4.64344 28.5198 4.47507 27.9075C4.01401 25.2985 3.79138 22.653 3.80997 20.0037H3.81001L3.80998 19.9979C3.79804 17.3445 4.02665 14.6954 4.49299 12.0833C4.66661 11.4683 4.99362 10.9073 5.44348 10.4531C5.89731 9.99494 6.46098 9.66073 7.08067 9.48236C7.66504 9.32971 8.72273 9.20718 10.0281 9.11346C11.3239 9.02044 12.8238 8.95819 14.2623 8.91662C17.1388 8.8335 19.753 8.8335 19.965 8.8335H20C20.0496 8.8335 22.6613 8.83848 25.5811 8.93178C27.0413 8.97845 28.5741 9.04707 29.9001 9.14776C31.2404 9.24954 32.3266 9.38139 32.9194 9.54401L32.9208 9.54439C34.1746 9.88449 35.1551 10.8605 35.5003 12.1109C35.9752 14.7294 36.1995 17.3852 36.1667 20.0457L36.1666 20.0457L36.1667 20.054C36.1782 22.7044 35.949 25.3504 35.4819 27.9593C35.3113 28.5712 34.9853 29.1286 34.5355 29.5774C34.0809 30.031 33.5156 30.3578 32.8957 30.5255C32.3134 30.6797 31.2545 30.8039 29.9463 30.8992C28.6509 30.9935 27.1512 31.057 25.7126 31.0998C22.8362 31.1852 20.2215 31.1868 20.01 31.1868H19.9767C19.9278 31.1868 17.3232 31.1819 14.407 31.0885C12.9486 31.0419 11.4167 30.9733 10.0894 30.8726C8.74825 30.7708 7.65785 30.639 7.05769 30.476ZM16.9263 14.5753L16.1774 14.1438L16.1767 15.0081L16.1683 25.0081L16.1676 25.8736L16.9177 25.4418L25.6044 20.4418L26.3569 20.0087L25.6046 19.5753L16.9263 14.5753Z" stroke="#1DC7A8"/>
</svg>
